<svg xmlns="http://www.w3.org/2000/svg" viewBox="0 0 100 100">
  <rect width="100" height="100" rx="20" fill="#059669"/>
  <path d="M50 25c-8.8 0-16 7.2-16 16 0 1.2.1 2.4.4 3.5-3.4 1.8-5.8 5.4-5.8 9.5 0 6.1 4.9 11 11 11 1.7 0 3.3-.4 4.7-1.1.7.3 1.4.5 2.2.5s1.5-.2 2.2-.5c1.4.7 3 1.1 4.7 1.1 6.1 0 11-4.9 11-11 0-4.1-2.4-7.7-5.8-9.5.3-1.1.4-2.3.4-3.5 0-8.8-7.2-16-16-16z" fill="#A7F3D0" stroke="#064E3B" stroke-width="3"/>
  <path d="M70 20l15 8-15 8-15-8 15-8z" fill="#064E3B"/>
  <path d="M85 28v12M70 36c2 4 10 4 12 0" fill="none" stroke="#064E3B" stroke-width="3"/>
</svg>
