<svg width="200" height="200" viewBox="0 0 200 200" fill="none" xmlns="http://www.w3.org/2000/svg">
  <!-- Outer Glow -->
  <circle cx="100" cy="100" r="95" fill="white" fill-opacity="0.1" />
  <circle cx="100" cy="100" r="90" fill="url(#cosmic_glow)" />

  <!-- Cat Head Base (Black) -->
  <path d="M100 160C133.137 160 160 133.137 160 100C160 66.8629 133.137 40 100 40C66.8629 40 40 66.8629 40 100C40 133.137 66.8629 160 100 160Z" fill="#1A1A1A"/>
  
  <!-- Ears -->
  <path d="M48 60L30 20L75 45" fill="#1A1A1A"/>
  <path d="M152 60L170 20L125 45" fill="#1A1A1A"/>
  
  <!-- Inside Ears (Slight Purple) -->
  <path d="M52 58L40 30L70 47" fill="#2D1B4D"/>
  <path d="M148 58L160 30L130 47" fill="#2D1B4D"/>

  <!-- Eyes (Large, expressive purple eyes) -->
  <circle cx="75" cy="100" r="14" fill="white"/>
  <circle cx="125" cy="100" r="14" fill="white"/>
  <circle cx="75" cy="100" r="10" fill="#7C3AED"/>
  <circle cx="125" cy="100" r="10" fill="#7C3AED"/>
  <circle cx="72" cy="98" r="4" fill="white"/>
  <circle cx="122" cy="98" r="4" fill="white"/>

  <!-- Nose (Tiny pink) -->
  <path d="M100 115L96 110H104L100 115Z" fill="#F472B6"/>

  <!-- Crescent Moon (Yellow - Forehead) -->
  <path d="M92 55C92 55 95 62 100 62C105 62 108 55 108 55C108 55 106 68 100 68C94 68 92 55 92 55Z" fill="#FDE047"/>

  <!-- Whiskers (Subtle white) -->
  <path d="M45 105H25" stroke="white" stroke-width="0.5" stroke-opacity="0.3"/>
  <path d="M45 115H30" stroke="white" stroke-width="0.5" stroke-opacity="0.3"/>
  <path d="M155 105H175" stroke="white" stroke-width="0.5" stroke-opacity="0.3"/>
  <path d="M155 115H170" stroke="white" stroke-width="0.5" stroke-opacity="0.3"/>

  <defs>
    <radialGradient id="cosmic_glow" cx="0" cy="0" r="1" gradientUnits="userSpaceOnUse" gradientTransform="translate(100 100) rotate(90) scale(95)">
      <stop stop-color="#22C55E" stop-opacity="0.2"/>
      <stop offset="1" stop-color="#22C55E" stop-opacity="0"/>
    </radialGradient>
  </defs>
</svg>
