<svg width="800" height="600" viewBox="0 0 800 600" xmlns="http://www.w3.org/2000/svg">
  <rect width="800" height="600" fill="#0F172A"/>
  <defs>
    <linearGradient id="sciGrad" x1="0%" y1="0%" x2="100%" y2="100%">
      <stop offset="0%" style="stop-color:#06B6D4;stop-opacity:1" />
      <stop offset="100%" style="stop-color:#3B82F6;stop-opacity:1" />
    </linearGradient>
    <radialGradient id="atomCore" cx="50%" cy="50%" r="50%">
      <stop offset="0%" style="stop-color:#FDE047;stop-opacity:0.8" />
      <stop offset="100%" style="stop-color:#FDE047;stop-opacity:0" />
    </radialGradient>
  </defs>
  <!-- Background patterns -->
  <circle cx="400" cy="300" r="150" fill="url(#atomCore)" opacity="0.1"/>
  <path d="M400 150 Q550 150 550 300 Q550 450 400 450 Q250 450 250 300 Q250 150 400 150" fill="none" stroke="url(#sciGrad)" stroke-width="4" opacity="0.6"/>
  <path d="M400 150 Q250 150 250 300 Q250 450 400 450 Q550 450 550 300 Q550 150 400 150" fill="none" stroke="url(#sciGrad)" stroke-width="4" opacity="0.6" transform="rotate(60, 400, 300)"/>
  <path d="M400 150 Q250 150 250 300 Q250 450 400 450 Q550 450 550 300 Q550 150 400 150" fill="none" stroke="url(#sciGrad)" stroke-width="4" opacity="0.6" transform="rotate(-60, 400, 300)"/>
  <circle cx="400" cy="300" r="20" fill="#FDE047"/>
  
  <text x="400" y="520" text-anchor="middle" font-family="Arial, sans-serif" font-size="48" font-weight="bold" fill="white">SCIENCE</text>
  <text x="400" y="555" text-anchor="middle" font-family="Arial, sans-serif" font-size="18" fill="#94A3B8" letter-spacing="4">EXPLORE THE UNIVERSE</text>
</svg>
